<svg xmlns="http://www.w3.org/2000/svg" viewBox="0 0 96 96" width="96" height="96"><defs><linearGradient id="g" x1="0" y1="0" x2="1" y2="1"><stop offset="0" stop-color="#16A34A"/><stop offset="1" stop-color="#14532D"/></linearGradient><radialGradient id="h" cx=".22" cy=".12" r=".95"><stop offset="0" stop-color="#fff" stop-opacity=".30"/><stop offset=".55" stop-color="#fff" stop-opacity="0"/></radialGradient></defs><rect width="96" height="96" rx="24" fill="url(#g)"/><rect width="96" height="96" rx="24" fill="url(#h)"/><rect x=".75" y=".75" width="94.5" height="94.5" rx="23.25" fill="none" stroke="#fff" stroke-opacity=".18" stroke-width="1.5"/><g transform="translate(20 20) scale(1.1667)"><path d="M22 44C10 40.5 5.5 28.5 9.5 16C21.5 18.5 28 30.5 22 44Z" fill="#fff"/><path d="M26.5 40.5C26 28.5 32 20 42.5 18C44.5 30 38.5 38.5 26.5 40.5Z" fill="#fff"/><path d="M24 21C19.5 15 21.5 8.5 25.5 4C30 9 30 15.5 24 21Z" fill="#fff"/><path d="M11.5 19.5C17 26 20 33 21.5 42M40 21C35 26.5 30.5 32 27.5 39" fill="none" stroke="#14532D" stroke-width="1.4" stroke-linecap="round"/></g></svg>