<svg xmlns="http://www.w3.org/2000/svg" viewBox="0 0 640 256" width="640" height="256" preserveAspectRatio="xMidYMid slice"><defs><linearGradient id="g" x1="0" y1="0" x2="1" y2="1"><stop offset="0" stop-color="#F59E0B"/><stop offset="1" stop-color="#B45309"/></linearGradient><pattern id="p" width="72" height="72" patternUnits="userSpaceOnUse" patternTransform="rotate(-14)"><g transform="translate(18 18) scale(.75)" opacity=".11"><ellipse cx="24" cy="11.5" rx="3.6" ry="7.2" fill="#fff" transform="rotate(0 24 24)"/><ellipse cx="24" cy="11.5" rx="3.6" ry="7.2" fill="#fff" transform="rotate(45 24 24)"/><ellipse cx="24" cy="11.5" rx="3.6" ry="7.2" fill="#fff" transform="rotate(90 24 24)"/><ellipse cx="24" cy="11.5" rx="3.6" ry="7.2" fill="#fff" transform="rotate(135 24 24)"/><ellipse cx="24" cy="11.5" rx="3.6" ry="7.2" fill="#fff" transform="rotate(180 24 24)"/><ellipse cx="24" cy="11.5" rx="3.6" ry="7.2" fill="#fff" transform="rotate(225 24 24)"/><ellipse cx="24" cy="11.5" rx="3.6" ry="7.2" fill="#fff" transform="rotate(270 24 24)"/><ellipse cx="24" cy="11.5" rx="3.6" ry="7.2" fill="#fff" transform="rotate(315 24 24)"/><circle cx="24" cy="24" r="4.4" fill="#B45309"/><circle cx="24" cy="24" r="2.2" fill="#fff"/><circle cx="24" cy="24" r="22" fill="none" stroke="#fff" stroke-width="1.6" stroke-dasharray="2.6 2.8" stroke-linecap="round"/></g></pattern><radialGradient id="l" cx=".85" cy=".1" r=".75"><stop offset="0" stop-color="#fff" stop-opacity=".22"/><stop offset="1" stop-color="#fff" stop-opacity="0"/></radialGradient></defs><rect width="640" height="256" fill="url(#g)"/><rect width="640" height="256" fill="url(#p)"/><rect width="640" height="256" fill="url(#l)"/><circle cx="96" cy="300" r="150" fill="#000" opacity=".10"/><g transform="translate(420 6) scale(5)" opacity=".2"><ellipse cx="24" cy="11.5" rx="3.6" ry="7.2" fill="#fff" transform="rotate(0 24 24)"/><ellipse cx="24" cy="11.5" rx="3.6" ry="7.2" fill="#fff" transform="rotate(45 24 24)"/><ellipse cx="24" cy="11.5" rx="3.6" ry="7.2" fill="#fff" transform="rotate(90 24 24)"/><ellipse cx="24" cy="11.5" rx="3.6" ry="7.2" fill="#fff" transform="rotate(135 24 24)"/><ellipse cx="24" cy="11.5" rx="3.6" ry="7.2" fill="#fff" transform="rotate(180 24 24)"/><ellipse cx="24" cy="11.5" rx="3.6" ry="7.2" fill="#fff" transform="rotate(225 24 24)"/><ellipse cx="24" cy="11.5" rx="3.6" ry="7.2" fill="#fff" transform="rotate(270 24 24)"/><ellipse cx="24" cy="11.5" rx="3.6" ry="7.2" fill="#fff" transform="rotate(315 24 24)"/><circle cx="24" cy="24" r="4.4" fill="#B45309"/><circle cx="24" cy="24" r="2.2" fill="#fff"/><circle cx="24" cy="24" r="22" fill="none" stroke="#fff" stroke-width="1.6" stroke-dasharray="2.6 2.8" stroke-linecap="round"/></g></svg>