<svg xmlns="http://www.w3.org/2000/svg" viewBox="0 0 640 256" width="640" height="256" preserveAspectRatio="xMidYMid slice"><defs><linearGradient id="g" x1="0" y1="0" x2="1" y2="1"><stop offset="0" stop-color="#EC4899"/><stop offset="1" stop-color="#9D174D"/></linearGradient><pattern id="p" width="72" height="72" patternUnits="userSpaceOnUse" patternTransform="rotate(-14)"><g transform="translate(18 18) scale(.75)" opacity=".11"><path d="M43 5L27 21" stroke="#fff" stroke-width="6" stroke-linecap="round"/><path d="M27.5 20.5C31 24 29.5 32.5 21.5 37.5C14.5 41.8 5 42 5 42C5 42 5.5 33 9.5 27C14.5 19.5 23.5 16.5 27.5 20.5Z" fill="#fff"/><circle cx="37" cy="35" r="3.4" fill="#fff"/><circle cx="43.5" cy="27" r="2.2" fill="#fff"/><circle cx="41" cy="43" r="2.2" fill="#fff"/></g></pattern><radialGradient id="l" cx=".85" cy=".1" r=".75"><stop offset="0" stop-color="#fff" stop-opacity=".22"/><stop offset="1" stop-color="#fff" stop-opacity="0"/></radialGradient></defs><rect width="640" height="256" fill="url(#g)"/><rect width="640" height="256" fill="url(#p)"/><rect width="640" height="256" fill="url(#l)"/><circle cx="96" cy="300" r="150" fill="#000" opacity=".10"/><g transform="translate(420 6) scale(5)" opacity=".2"><path d="M43 5L27 21" stroke="#fff" stroke-width="6" stroke-linecap="round"/><path d="M27.5 20.5C31 24 29.5 32.5 21.5 37.5C14.5 41.8 5 42 5 42C5 42 5.5 33 9.5 27C14.5 19.5 23.5 16.5 27.5 20.5Z" fill="#fff"/><circle cx="37" cy="35" r="3.4" fill="#fff"/><circle cx="43.5" cy="27" r="2.2" fill="#fff"/><circle cx="41" cy="43" r="2.2" fill="#fff"/></g></svg>